<svg xmlns="http://www.w3.org/2000/svg" viewBox="0 0 50 50" width="50px" height="50px">
  <path d="M32.15 17.985C32.207 17.995 32.264 18 32.322 18l0 0C34.378 17.999 40 12.896 40 9c0-3.088-3.114-5-6-5-3.131 0-5 1.869-5 5C29 12.318 30.353 17.672 32.15 17.985zM41.069 15.013c-2.882 0-7.028 4.24-7.028 5.684 0 1.792 4.357 3.304 7.094 3.304C43.591 24 45 22.598 45 20.151 45 17.67 43.42 15.013 41.069 15.013zM25 17C18.295 17 8.774 36.255 8.02 44.126c-.028.296.077.589.286.8.188.19.444.296.71.296.029 0 .058-.001.087-.004C17.231 44.504 35 34.19 35 27.604 35 22.688 28.948 17 25 17z" fill="#FFFFFF" />
</svg>